<?xml version="1.0" encoding="utf-8"?>
<!DOCTYPE svg
  PUBLIC '-//W3C//DTD SVG 1.0//EN'
  'http://www.w3.org/TR/2001/REC-SVG-20010904/DTD/svg10.dtd'>
<svg width="518.4" height="480" preserveAspectRatio="xMinYMin meet" viewBox="0 0 518 480" xmlns="http://www.w3.org/2000/svg" version="1.0" fill-rule="evenodd" xmlns:xlink="http://www.w3.org/1999/xlink">
	<title>...</title>
	<desc>...</desc>
	<clipPath id="clip">
		<rect x="0" y="0" width="518.4" height="480"/>
	</clipPath>
	<g id="group" transform="scale(1,-1) translate(0,-480)" style="clip-path: url(#clip)">
		<g transform="">
			<path d="M 232,48 L 386,48 Z" style="stroke: rgb(12%,13%,14%); stroke-linecap: butt; stroke-width: 1;"/>
			<path d="M 243.846154,48 L 243.846154,438 Z" style="stroke: rgb(84%,86%,88%); stroke-linecap: butt; stroke-width: 1.2;"/>
			<path d="M 243.846154,48 L 243.846154,44 Z" style="stroke: rgb(12%,13%,14%); stroke-linecap: butt; stroke-width: 0.8;"/>
			<text x="237.22877103365383" y="34" style="font-family: Arial; font-size: 6.8px;fill: rgb(12%,13%,14%); stroke:none;" transform="translate(0,68) scale(1,-1)">0.00</text>
			<path d="M 267.538462,48 L 267.538462,44 Z" style="stroke: rgb(12%,13%,14%); stroke-linecap: butt; stroke-width: 0.8;"/>
			<text x="260.92107872596154" y="34" style="font-family: Arial; font-size: 6.8px;fill: rgb(12%,13%,14%); stroke:none;" transform="translate(0,68) scale(1,-1)">0.01</text>
			<path d="M 291.230769,48 L 291.230769,44 Z" style="stroke: rgb(12%,13%,14%); stroke-linecap: butt; stroke-width: 0.8;"/>
			<text x="284.6133864182692" y="34" style="font-family: Arial; font-size: 6.8px;fill: rgb(12%,13%,14%); stroke:none;" transform="translate(0,68) scale(1,-1)">0.02</text>
			<path d="M 314.923077,48 L 314.923077,44 Z" style="stroke: rgb(12%,13%,14%); stroke-linecap: butt; stroke-width: 0.8;"/>
			<text x="308.3056941105769" y="34" style="font-family: Arial; font-size: 6.8px;fill: rgb(12%,13%,14%); stroke:none;" transform="translate(0,68) scale(1,-1)">0.03</text>
			<path d="M 338.615385,48 L 338.615385,44 Z" style="stroke: rgb(12%,13%,14%); stroke-linecap: butt; stroke-width: 0.8;"/>
			<text x="331.99800180288463" y="34" style="font-family: Arial; font-size: 6.8px;fill: rgb(12%,13%,14%); stroke:none;" transform="translate(0,68) scale(1,-1)">0.04</text>
			<path d="M 362.307692,48 L 362.307692,44 Z" style="stroke: rgb(12%,13%,14%); stroke-linecap: butt; stroke-width: 0.8;"/>
			<text x="355.69030949519225" y="34" style="font-family: Arial; font-size: 6.8px;fill: rgb(12%,13%,14%); stroke:none;" transform="translate(0,68) scale(1,-1)">0.05</text>
			<path d="M 386,48 L 386,44 Z" style="stroke: rgb(12%,13%,14%); stroke-linecap: butt; stroke-width: 0.8;"/>
			<text x="379.3826171875" y="34" style="font-family: Arial; font-size: 6.8px;fill: rgb(12%,13%,14%); stroke:none;" transform="translate(0,68) scale(1,-1)">0.06</text>
			<text x="258.984375" y="12" style="font-family: Arial; font-size: 8px;fill: rgb(12%,13%,14%); stroke:none;" transform="translate(0,24) scale(1,-1)">AUROC difference (95% CI)</text>
			<circle cx="275" cy="463" r="2.8" style="stroke: rgb(18%,49%,31%); stroke-linecap: butt; stroke-width: 1; fill: rgb(18%,49%,31%); fill-rule: evenodd;"/>
			<text x="282" y="460.5" style="font-family: Arial; font-size: 7.2px;fill: rgb(12%,13%,14%); stroke:none;" transform="translate(0,921) scale(1,-1)">CHARLS</text>
			<rect x="344.2" y="460.2" width="5.600000000000023" height="5.600000000000023" style="stroke: rgb(10%,41%,66%); stroke-linecap: butt; stroke-width: 1; fill: rgb(10%,41%,66%); fill-rule: evenodd;"/>
			<text x="354" y="460.5" style="font-family: Arial; font-size: 7.2px;fill: rgb(12%,13%,14%); stroke:none;" transform="translate(0,921) scale(1,-1)">HRS</text>
			<polygon points="419 466.36, 422.36 463, 419 459.64, 415.64 463" style="stroke: rgb(74%,29%,18%); stroke-linecap: butt; stroke-width: 1; fill: rgb(74%,29%,18%); fill-rule: evenodd;"/>
			<text x="426" y="460.5" style="font-family: Arial; font-size: 7.2px;fill: rgb(12%,13%,14%); stroke:none;" transform="translate(0,921) scale(1,-1)">ELSA</text>
			<text x="10" y="430" style="font-family: Arial-Bold; font-size: 8.2px;fill: rgb(12%,13%,14%); stroke:none;" transform="translate(0,860) scale(1,-1)">Primary: 0.5-SD decline, age ≥50 y</text>
			<text x="24" y="411.6" style="font-family: Arial; font-size: 7.2px;fill: rgb(39%,41%,45%); stroke:none;" transform="translate(0,823) scale(1,-1)">CHARLS internal evaluation</text>
			<path d="M 282.746098,414 L 307.814854,414 Z" style="stroke: rgb(18%,49%,31%); stroke-linecap: butt; stroke-width: 2.2;"/>
			<path d="M 282.746098,411 L 282.746098,417 Z" style="stroke: rgb(18%,49%,31%); stroke-linecap: butt; stroke-width: 1.2;"/>
			<path d="M 307.814854,411 L 307.814854,417 Z" style="stroke: rgb(18%,49%,31%); stroke-linecap: butt; stroke-width: 1.2;"/>
			<circle cx="295.27965002259515" cy="414" r="3" style="stroke: rgb(18%,49%,31%); stroke-linecap: butt; stroke-width: 1; fill: rgb(18%,49%,31%); fill-rule: evenodd;"/>
			<text x="405" y="411.4" style="font-family: Arial; font-size: 6.9px;fill: rgb(12%,13%,14%); stroke:none;" transform="translate(0,822) scale(1,-1)">0.022 (0.016 to 0.027)</text>
			<text x="24" y="383.6" style="font-family: Arial; font-size: 7.2px;fill: rgb(39%,41%,45%); stroke:none;" transform="translate(0,767) scale(1,-1)">HRS external evaluation</text>
			<path d="M 320.116064,386 L 338.71034,386 Z" style="stroke: rgb(10%,41%,66%); stroke-linecap: butt; stroke-width: 2.2;"/>
			<path d="M 320.116064,383 L 320.116064,389 Z" style="stroke: rgb(10%,41%,66%); stroke-linecap: butt; stroke-width: 1.2;"/>
			<path d="M 338.71034,383 L 338.71034,389 Z" style="stroke: rgb(10%,41%,66%); stroke-linecap: butt; stroke-width: 1.2;"/>
			<rect x="326.12348369708434" y="383" width="6.0" height="6" style="stroke: rgb(10%,41%,66%); stroke-linecap: butt; stroke-width: 1; fill: rgb(10%,41%,66%); fill-rule: evenodd;"/>
			<text x="405" y="383.4" style="font-family: Arial; font-size: 6.9px;fill: rgb(12%,13%,14%); stroke:none;" transform="translate(0,766) scale(1,-1)">0.036 (0.032 to 0.040)</text>
			<text x="24" y="355.6" style="font-family: Arial; font-size: 7.2px;fill: rgb(39%,41%,45%); stroke:none;" transform="translate(0,711) scale(1,-1)">ELSA locked confirmation</text>
			<path d="M 309.827285,358 L 335.747707,358 Z" style="stroke: rgb(74%,29%,18%); stroke-linecap: butt; stroke-width: 2.2;"/>
			<path d="M 309.827285,355 L 309.827285,361 Z" style="stroke: rgb(74%,29%,18%); stroke-linecap: butt; stroke-width: 1.2;"/>
			<path d="M 335.747707,355 L 335.747707,361 Z" style="stroke: rgb(74%,29%,18%); stroke-linecap: butt; stroke-width: 1.2;"/>
			<polygon points="322.551 361.6, 326.151 358, 322.551 354.4, 318.951 358" style="stroke: rgb(74%,29%,18%); stroke-linecap: butt; stroke-width: 1; fill: rgb(74%,29%,18%); fill-rule: evenodd;"/>
			<text x="405" y="355.4" style="font-family: Arial; font-size: 6.9px;fill: rgb(12%,13%,14%); stroke:none;" transform="translate(0,710) scale(1,-1)">0.033 (0.028 to 0.039)</text>
			<text x="10" y="326" style="font-family: Arial-Bold; font-size: 8.2px;fill: rgb(12%,13%,14%); stroke:none;" transform="translate(0,652) scale(1,-1)">Age ≥65 y</text>
			<text x="24" y="307.6" style="font-family: Arial; font-size: 7.2px;fill: rgb(39%,41%,45%); stroke:none;" transform="translate(0,615) scale(1,-1)">CHARLS internal evaluation</text>
			<path d="M 270.625063,310 L 317.785923,310 Z" style="stroke: rgb(18%,49%,31%); stroke-linecap: butt; stroke-width: 2.2;"/>
			<path d="M 270.625063,307 L 270.625063,313 Z" style="stroke: rgb(18%,49%,31%); stroke-linecap: butt; stroke-width: 1.2;"/>
			<path d="M 317.785923,307 L 317.785923,313 Z" style="stroke: rgb(18%,49%,31%); stroke-linecap: butt; stroke-width: 1.2;"/>
			<circle cx="294.40205833415996" cy="310" r="3" style="stroke: rgb(18%,49%,31%); stroke-linecap: butt; stroke-width: 1; fill: rgb(18%,49%,31%); fill-rule: evenodd;"/>
			<text x="405" y="307.4" style="font-family: Arial; font-size: 6.9px;fill: rgb(12%,13%,14%); stroke:none;" transform="translate(0,614) scale(1,-1)">0.021 (0.011 to 0.031)</text>
			<text x="24" y="279.6" style="font-family: Arial; font-size: 7.2px;fill: rgb(39%,41%,45%); stroke:none;" transform="translate(0,559) scale(1,-1)">HRS external evaluation</text>
			<path d="M 320.639768,282 L 348.482662,282 Z" style="stroke: rgb(10%,41%,66%); stroke-linecap: butt; stroke-width: 2.2;"/>
			<path d="M 320.639768,279 L 320.639768,285 Z" style="stroke: rgb(10%,41%,66%); stroke-linecap: butt; stroke-width: 1.2;"/>
			<path d="M 348.482662,279 L 348.482662,285 Z" style="stroke: rgb(10%,41%,66%); stroke-linecap: butt; stroke-width: 1.2;"/>
			<rect x="331.3944283397176" y="279" width="6.0" height="6" style="stroke: rgb(10%,41%,66%); stroke-linecap: butt; stroke-width: 1; fill: rgb(10%,41%,66%); fill-rule: evenodd;"/>
			<text x="405" y="279.4" style="font-family: Arial; font-size: 6.9px;fill: rgb(12%,13%,14%); stroke:none;" transform="translate(0,558) scale(1,-1)">0.038 (0.032 to 0.044)</text>
			<text x="10" y="250" style="font-family: Arial-Bold; font-size: 8.2px;fill: rgb(12%,13%,14%); stroke:none;" transform="translate(0,500) scale(1,-1)">1-SD decline</text>
			<text x="24" y="231.6" style="font-family: Arial; font-size: 7.2px;fill: rgb(39%,41%,45%); stroke:none;" transform="translate(0,463) scale(1,-1)">CHARLS internal evaluation</text>
			<path d="M 272.397211,234 L 300.125665,234 Z" style="stroke: rgb(18%,49%,31%); stroke-linecap: butt; stroke-width: 2.2;"/>
			<path d="M 272.397211,231 L 272.397211,237 Z" style="stroke: rgb(18%,49%,31%); stroke-linecap: butt; stroke-width: 1.2;"/>
			<path d="M 300.125665,231 L 300.125665,237 Z" style="stroke: rgb(18%,49%,31%); stroke-linecap: butt; stroke-width: 1.2;"/>
			<circle cx="286.4767640211005" cy="234" r="3" style="stroke: rgb(18%,49%,31%); stroke-linecap: butt; stroke-width: 1; fill: rgb(18%,49%,31%); fill-rule: evenodd;"/>
			<text x="405" y="231.4" style="font-family: Arial; font-size: 6.9px;fill: rgb(12%,13%,14%); stroke:none;" transform="translate(0,462) scale(1,-1)">0.018 (0.012 to 0.024)</text>
			<text x="24" y="203.6" style="font-family: Arial; font-size: 7.2px;fill: rgb(39%,41%,45%); stroke:none;" transform="translate(0,407) scale(1,-1)">HRS external evaluation</text>
			<path d="M 310.473757,206 L 331.502668,206 Z" style="stroke: rgb(10%,41%,66%); stroke-linecap: butt; stroke-width: 2.2;"/>
			<path d="M 310.473757,203 L 310.473757,209 Z" style="stroke: rgb(10%,41%,66%); stroke-linecap: butt; stroke-width: 1.2;"/>
			<path d="M 331.502668,203 L 331.502668,209 Z" style="stroke: rgb(10%,41%,66%); stroke-linecap: butt; stroke-width: 1.2;"/>
			<rect x="318.0498839027995" y="203" width="6.0" height="6" style="stroke: rgb(10%,41%,66%); stroke-linecap: butt; stroke-width: 1; fill: rgb(10%,41%,66%); fill-rule: evenodd;"/>
			<text x="405" y="203.4" style="font-family: Arial; font-size: 6.9px;fill: rgb(12%,13%,14%); stroke:none;" transform="translate(0,406) scale(1,-1)">0.033 (0.028 to 0.037)</text>
			<text x="10" y="174" style="font-family: Arial-Bold; font-size: 8.2px;fill: rgb(12%,13%,14%); stroke:none;" transform="translate(0,348) scale(1,-1)">Exclusion of reported dementia or Alzheimer disease</text>
			<text x="24" y="155.6" style="font-family: Arial; font-size: 7.2px;fill: rgb(39%,41%,45%); stroke:none;" transform="translate(0,311) scale(1,-1)">HRS external evaluation</text>
			<path d="M 319.085505,158 L 338.74136,158 Z" style="stroke: rgb(10%,41%,66%); stroke-linecap: butt; stroke-width: 2.2;"/>
			<path d="M 319.085505,155 L 319.085505,161 Z" style="stroke: rgb(10%,41%,66%); stroke-linecap: butt; stroke-width: 1.2;"/>
			<path d="M 338.74136,155 L 338.74136,161 Z" style="stroke: rgb(10%,41%,66%); stroke-linecap: butt; stroke-width: 1.2;"/>
			<rect x="325.5309719878463" y="155" width="6.0" height="6" style="stroke: rgb(10%,41%,66%); stroke-linecap: butt; stroke-width: 1; fill: rgb(10%,41%,66%); fill-rule: evenodd;"/>
			<text x="405" y="155.4" style="font-family: Arial; font-size: 6.9px;fill: rgb(12%,13%,14%); stroke:none;" transform="translate(0,310) scale(1,-1)">0.036 (0.032 to 0.040)</text>
			<text x="10" y="126" style="font-family: Arial-Bold; font-size: 8.2px;fill: rgb(12%,13%,14%); stroke:none;" transform="translate(0,252) scale(1,-1)">25-point cognition score</text>
			<text x="24" y="107.6" style="font-family: Arial; font-size: 7.2px;fill: rgb(39%,41%,45%); stroke:none;" transform="translate(0,215) scale(1,-1)">CHARLS internal evaluation</text>
			<path d="M 301.755376,110 L 334.725688,110 Z" style="stroke: rgb(18%,49%,31%); stroke-linecap: butt; stroke-width: 2.2;"/>
			<path d="M 301.755376,107 L 301.755376,113 Z" style="stroke: rgb(18%,49%,31%); stroke-linecap: butt; stroke-width: 1.2;"/>
			<path d="M 334.725688,107 L 334.725688,113 Z" style="stroke: rgb(18%,49%,31%); stroke-linecap: butt; stroke-width: 1.2;"/>
			<circle cx="318.04229103432283" cy="110" r="3" style="stroke: rgb(18%,49%,31%); stroke-linecap: butt; stroke-width: 1; fill: rgb(18%,49%,31%); fill-rule: evenodd;"/>
			<text x="405" y="107.4" style="font-family: Arial; font-size: 6.9px;fill: rgb(12%,13%,14%); stroke:none;" transform="translate(0,214) scale(1,-1)">0.031 (0.024 to 0.038)</text>
			<text x="24" y="79.6" style="font-family: Arial; font-size: 7.2px;fill: rgb(39%,41%,45%); stroke:none;" transform="translate(0,159) scale(1,-1)">HRS external evaluation</text>
			<path d="M 348.233443,82 L 373.098841,82 Z" style="stroke: rgb(10%,41%,66%); stroke-linecap: butt; stroke-width: 2.2;"/>
			<path d="M 348.233443,79 L 348.233443,85 Z" style="stroke: rgb(10%,41%,66%); stroke-linecap: butt; stroke-width: 1.2;"/>
			<path d="M 373.098841,79 L 373.098841,85 Z" style="stroke: rgb(10%,41%,66%); stroke-linecap: butt; stroke-width: 1.2;"/>
			<rect x="357.41779457475394" y="79" width="6.0" height="6" style="stroke: rgb(10%,41%,66%); stroke-linecap: butt; stroke-width: 1; fill: rgb(10%,41%,66%); fill-rule: evenodd;"/>
			<text x="405" y="79.4" style="font-family: Arial; font-size: 6.9px;fill: rgb(12%,13%,14%); stroke:none;" transform="translate(0,158) scale(1,-1)">0.049 (0.044 to 0.055)</text>
		</g>
	</g>
</svg>
