<?xml version="1.0" encoding="utf-8"?>
<!DOCTYPE svg
  PUBLIC '-//W3C//DTD SVG 1.0//EN'
  'http://www.w3.org/TR/2001/REC-SVG-20010904/DTD/svg10.dtd'>
<svg width="518.4" height="500" preserveAspectRatio="xMinYMin meet" viewBox="0 0 518 500" xmlns="http://www.w3.org/2000/svg" version="1.0" fill-rule="evenodd" xmlns:xlink="http://www.w3.org/1999/xlink">
	<title>...</title>
	<desc>...</desc>
	<clipPath id="clip">
		<rect x="0" y="0" width="518.4" height="500"/>
	</clipPath>
	<g id="group" transform="scale(1,-1) translate(0,-500)" style="clip-path: url(#clip)">
		<g transform="">
			<text x="8" y="480" style="font-family: Arial-Bold; font-size: 11px;fill: rgb(18%,49%,31%); stroke:none;" transform="translate(0,960) scale(1,-1)">CHARLS</text>
			<rect x="8" y="365" width="158" height="70" style="stroke: rgb(18%,49%,31%); stroke-linecap: butt; stroke-width: 1.2; fill: rgb(96%,97%,97%); fill-rule: evenodd;"/>
			<rect x="8" y="365" width="4" height="70" style="stroke: rgb(18%,49%,31%); stroke-linecap: butt; stroke-width: 1; fill: rgb(18%,49%,31%); fill-rule: evenodd;"/>
			<text x="53.211083984375" y="402.255" style="font-family: Arial; font-size: 8.2px;fill: rgb(12%,13%,14%); stroke:none;" transform="translate(0,804) scale(1,-1)">Age eligible in 2011</text>
			<text x="69.506982421875" y="392.005" style="font-family: Arial; font-size: 8.2px;fill: rgb(12%,13%,14%); stroke:none;" transform="translate(0,784) scale(1,-1)">n = 13,466</text>
			<path d="M 87,358 L 87,331 Z" style="stroke: rgb(39%,41%,45%); stroke-linecap: butt; stroke-width: 1.2;"/>
			<polygon points="87 326, 83.5 333, 90.5 333" style="stroke: rgb(39%,41%,45%); stroke-linecap: butt; stroke-width: 1; fill: rgb(39%,41%,45%); fill-rule: evenodd;"/>
			<text x="94.0" y="340" style="font-family: Arial; font-size: 6.8px;fill: rgb(39%,41%,45%); stroke:none;" transform="translate(0,680) scale(1,-1)">Excluded: 2,834</text>
			<rect x="8" y="250" width="158" height="70" style="stroke: rgb(18%,49%,31%); stroke-linecap: butt; stroke-width: 1.2; fill: rgb(96%,97%,97%); fill-rule: evenodd;"/>
			<rect x="8" y="250" width="4" height="70" style="stroke: rgb(18%,49%,31%); stroke-linecap: butt; stroke-width: 1; fill: rgb(18%,49%,31%); fill-rule: evenodd;"/>
			<text x="46.15820312500001" y="287.255" style="font-family: Arial; font-size: 8.2px;fill: rgb(12%,13%,14%); stroke:none;" transform="translate(0,574) scale(1,-1)">2011 memory complete</text>
			<text x="69.506982421875" y="277.005" style="font-family: Arial; font-size: 8.2px;fill: rgb(12%,13%,14%); stroke:none;" transform="translate(0,554) scale(1,-1)">n = 10,632</text>
			<path d="M 87,243 L 87,216 Z" style="stroke: rgb(39%,41%,45%); stroke-linecap: butt; stroke-width: 1.2;"/>
			<polygon points="87 211, 83.5 218, 90.5 218" style="stroke: rgb(39%,41%,45%); stroke-linecap: butt; stroke-width: 1; fill: rgb(39%,41%,45%); fill-rule: evenodd;"/>
			<text x="94.0" y="225" style="font-family: Arial; font-size: 6.8px;fill: rgb(39%,41%,45%); stroke:none;" transform="translate(0,450) scale(1,-1)">Excluded: 2,273</text>
			<rect x="8" y="135" width="158" height="70" style="stroke: rgb(18%,49%,31%); stroke-linecap: butt; stroke-width: 1.2; fill: rgb(96%,97%,97%); fill-rule: evenodd;"/>
			<rect x="8" y="135" width="4" height="70" style="stroke: rgb(18%,49%,31%); stroke-linecap: butt; stroke-width: 1; fill: rgb(18%,49%,31%); fill-rule: evenodd;"/>
			<text x="35.21752929687501" y="172.255" style="font-family: Arial; font-size: 8.2px;fill: rgb(12%,13%,14%); stroke:none;" transform="translate(0,344) scale(1,-1)">2013 index memory complete</text>
			<text x="71.78720703125" y="162.005" style="font-family: Arial; font-size: 8.2px;fill: rgb(12%,13%,14%); stroke:none;" transform="translate(0,324) scale(1,-1)">n = 8,359</text>
			<path d="M 87,128 L 87,101 Z" style="stroke: rgb(39%,41%,45%); stroke-linecap: butt; stroke-width: 1.2;"/>
			<polygon points="87 96, 83.5 103, 90.5 103" style="stroke: rgb(39%,41%,45%); stroke-linecap: butt; stroke-width: 1; fill: rgb(39%,41%,45%); fill-rule: evenodd;"/>
			<text x="94.0" y="110" style="font-family: Arial; font-size: 6.8px;fill: rgb(39%,41%,45%); stroke:none;" transform="translate(0,220) scale(1,-1)">Excluded: 1,095</text>
			<rect x="8" y="20" width="158" height="70" style="stroke: rgb(18%,49%,31%); stroke-linecap: butt; stroke-width: 1.2; fill: rgb(96%,97%,97%); fill-rule: evenodd;"/>
			<rect x="8" y="20" width="4" height="70" style="stroke: rgb(18%,49%,31%); stroke-linecap: butt; stroke-width: 1; fill: rgb(18%,49%,31%); fill-rule: evenodd;"/>
			<text x="25.42597656250001" y="57.255" style="font-family: Arial-Bold; font-size: 8.2px;fill: rgb(12%,13%,14%); stroke:none;" transform="translate(0,114) scale(1,-1)">2015 outcome memory complete</text>
			<text x="71.56298828125" y="47.005" style="font-family: Arial-Bold; font-size: 8.2px;fill: rgb(12%,13%,14%); stroke:none;" transform="translate(0,94) scale(1,-1)">n = 7,264</text>
			<text x="180" y="480" style="font-family: Arial-Bold; font-size: 11px;fill: rgb(10%,41%,66%); stroke:none;" transform="translate(0,960) scale(1,-1)">HRS</text>
			<rect x="180" y="365" width="158" height="70" style="stroke: rgb(10%,41%,66%); stroke-linecap: butt; stroke-width: 1.2; fill: rgb(96%,97%,97%); fill-rule: evenodd;"/>
			<rect x="180" y="365" width="4" height="70" style="stroke: rgb(10%,41%,66%); stroke-linecap: butt; stroke-width: 1; fill: rgb(10%,41%,66%); fill-rule: evenodd;"/>
			<text x="225.211083984375" y="402.255" style="font-family: Arial; font-size: 8.2px;fill: rgb(12%,13%,14%); stroke:none;" transform="translate(0,804) scale(1,-1)">Age eligible in 2012</text>
			<text x="241.506982421875" y="392.005" style="font-family: Arial; font-size: 8.2px;fill: rgb(12%,13%,14%); stroke:none;" transform="translate(0,784) scale(1,-1)">n = 19,866</text>
			<path d="M 259,358 L 259,331 Z" style="stroke: rgb(39%,41%,45%); stroke-linecap: butt; stroke-width: 1.2;"/>
			<polygon points="259 326, 255.5 333, 262.5 333" style="stroke: rgb(39%,41%,45%); stroke-linecap: butt; stroke-width: 1; fill: rgb(39%,41%,45%); fill-rule: evenodd;"/>
			<text x="266.0" y="340" style="font-family: Arial; font-size: 6.8px;fill: rgb(39%,41%,45%); stroke:none;" transform="translate(0,680) scale(1,-1)">Excluded: 1,737</text>
			<rect x="180" y="250" width="158" height="70" style="stroke: rgb(10%,41%,66%); stroke-linecap: butt; stroke-width: 1.2; fill: rgb(96%,97%,97%); fill-rule: evenodd;"/>
			<rect x="180" y="250" width="4" height="70" style="stroke: rgb(10%,41%,66%); stroke-linecap: butt; stroke-width: 1; fill: rgb(10%,41%,66%); fill-rule: evenodd;"/>
			<text x="218.158203125" y="287.255" style="font-family: Arial; font-size: 8.2px;fill: rgb(12%,13%,14%); stroke:none;" transform="translate(0,574) scale(1,-1)">2012 memory complete</text>
			<text x="241.506982421875" y="277.005" style="font-family: Arial; font-size: 8.2px;fill: rgb(12%,13%,14%); stroke:none;" transform="translate(0,554) scale(1,-1)">n = 18,129</text>
			<path d="M 259,243 L 259,216 Z" style="stroke: rgb(39%,41%,45%); stroke-linecap: butt; stroke-width: 1.2;"/>
			<polygon points="259 211, 255.5 218, 262.5 218" style="stroke: rgb(39%,41%,45%); stroke-linecap: butt; stroke-width: 1; fill: rgb(39%,41%,45%); fill-rule: evenodd;"/>
			<text x="266.0" y="225" style="font-family: Arial; font-size: 6.8px;fill: rgb(39%,41%,45%); stroke:none;" transform="translate(0,450) scale(1,-1)">Excluded: 2,542</text>
			<rect x="180" y="135" width="158" height="70" style="stroke: rgb(10%,41%,66%); stroke-linecap: butt; stroke-width: 1.2; fill: rgb(96%,97%,97%); fill-rule: evenodd;"/>
			<rect x="180" y="135" width="4" height="70" style="stroke: rgb(10%,41%,66%); stroke-linecap: butt; stroke-width: 1; fill: rgb(10%,41%,66%); fill-rule: evenodd;"/>
			<text x="207.217529296875" y="172.255" style="font-family: Arial; font-size: 8.2px;fill: rgb(12%,13%,14%); stroke:none;" transform="translate(0,344) scale(1,-1)">2014 index memory complete</text>
			<text x="241.506982421875" y="162.005" style="font-family: Arial; font-size: 8.2px;fill: rgb(12%,13%,14%); stroke:none;" transform="translate(0,324) scale(1,-1)">n = 15,587</text>
			<path d="M 259,128 L 259,101 Z" style="stroke: rgb(39%,41%,45%); stroke-linecap: butt; stroke-width: 1.2;"/>
			<polygon points="259 96, 255.5 103, 262.5 103" style="stroke: rgb(39%,41%,45%); stroke-linecap: butt; stroke-width: 1; fill: rgb(39%,41%,45%); fill-rule: evenodd;"/>
			<text x="266.0" y="110" style="font-family: Arial; font-size: 6.8px;fill: rgb(39%,41%,45%); stroke:none;" transform="translate(0,220) scale(1,-1)">Excluded: 2,469</text>
			<rect x="180" y="20" width="158" height="70" style="stroke: rgb(10%,41%,66%); stroke-linecap: butt; stroke-width: 1.2; fill: rgb(96%,97%,97%); fill-rule: evenodd;"/>
			<rect x="180" y="20" width="4" height="70" style="stroke: rgb(10%,41%,66%); stroke-linecap: butt; stroke-width: 1; fill: rgb(10%,41%,66%); fill-rule: evenodd;"/>
			<text x="197.4259765625" y="57.255" style="font-family: Arial-Bold; font-size: 8.2px;fill: rgb(12%,13%,14%); stroke:none;" transform="translate(0,114) scale(1,-1)">2016 outcome memory complete</text>
			<text x="241.282763671875" y="47.005" style="font-family: Arial-Bold; font-size: 8.2px;fill: rgb(12%,13%,14%); stroke:none;" transform="translate(0,94) scale(1,-1)">n = 13,118</text>
			<text x="352" y="480" style="font-family: Arial-Bold; font-size: 11px;fill: rgb(74%,29%,18%); stroke:none;" transform="translate(0,960) scale(1,-1)">ELSA</text>
			<rect x="352" y="365" width="158" height="70" style="stroke: rgb(74%,29%,18%); stroke-linecap: butt; stroke-width: 1.2; fill: rgb(96%,97%,97%); fill-rule: evenodd;"/>
			<rect x="352" y="365" width="4" height="70" style="stroke: rgb(74%,29%,18%); stroke-linecap: butt; stroke-width: 1; fill: rgb(74%,29%,18%); fill-rule: evenodd;"/>
			<text x="388.790869140625" y="402.255" style="font-family: Arial; font-size: 8.2px;fill: rgb(12%,13%,14%); stroke:none;" transform="translate(0,804) scale(1,-1)">Harmonized participants</text>
			<text x="413.506982421875" y="392.005" style="font-family: Arial; font-size: 8.2px;fill: rgb(12%,13%,14%); stroke:none;" transform="translate(0,784) scale(1,-1)">n = 21,679</text>
			<path d="M 431,358 L 431,331 Z" style="stroke: rgb(39%,41%,45%); stroke-linecap: butt; stroke-width: 1.2;"/>
			<polygon points="431 326, 427.5 333, 434.5 333" style="stroke: rgb(39%,41%,45%); stroke-linecap: butt; stroke-width: 1; fill: rgb(39%,41%,45%); fill-rule: evenodd;"/>
			<text x="438.0" y="340" style="font-family: Arial; font-size: 6.8px;fill: rgb(39%,41%,45%); stroke:none;" transform="translate(0,680) scale(1,-1)">Excluded: 13,465</text>
			<rect x="352" y="250" width="158" height="70" style="stroke: rgb(74%,29%,18%); stroke-linecap: butt; stroke-width: 1.2; fill: rgb(96%,97%,97%); fill-rule: evenodd;"/>
			<rect x="352" y="250" width="4" height="70" style="stroke: rgb(74%,29%,18%); stroke-linecap: butt; stroke-width: 1; fill: rgb(74%,29%,18%); fill-rule: evenodd;"/>
			<text x="392.4564453125" y="292.38" style="font-family: Arial; font-size: 8.2px;fill: rgb(12%,13%,14%); stroke:none;" transform="translate(0,584) scale(1,-1)">Age ≥50 y and wave 7</text>
			<text x="389.4775390625" y="282.13" style="font-family: Arial; font-size: 8.2px;fill: rgb(12%,13%,14%); stroke:none;" transform="translate(0,564) scale(1,-1)">index memory complete</text>
			<text x="415.78720703125" y="271.88" style="font-family: Arial; font-size: 8.2px;fill: rgb(12%,13%,14%); stroke:none;" transform="translate(0,543) scale(1,-1)">n = 8,214</text>
			<path d="M 431,243 L 431,216 Z" style="stroke: rgb(39%,41%,45%); stroke-linecap: butt; stroke-width: 1.2;"/>
			<polygon points="431 211, 427.5 218, 434.5 218" style="stroke: rgb(39%,41%,45%); stroke-linecap: butt; stroke-width: 1; fill: rgb(39%,41%,45%); fill-rule: evenodd;"/>
			<text x="438.0" y="225" style="font-family: Arial; font-size: 6.8px;fill: rgb(39%,41%,45%); stroke:none;" transform="translate(0,450) scale(1,-1)">Excluded: 62</text>
			<rect x="352" y="135" width="158" height="70" style="stroke: rgb(74%,29%,18%); stroke-linecap: butt; stroke-width: 1.2; fill: rgb(96%,97%,97%); fill-rule: evenodd;"/>
			<rect x="352" y="135" width="4" height="70" style="stroke: rgb(74%,29%,18%); stroke-linecap: butt; stroke-width: 1; fill: rgb(74%,29%,18%); fill-rule: evenodd;"/>
			<text x="394.258203125" y="177.38" style="font-family: Arial; font-size: 8.2px;fill: rgb(12%,13%,14%); stroke:none;" transform="translate(0,354) scale(1,-1)">Also wave 6 previous</text>
			<text x="400.418212890625" y="167.13" style="font-family: Arial; font-size: 8.2px;fill: rgb(12%,13%,14%); stroke:none;" transform="translate(0,334) scale(1,-1)">memory complete</text>
			<text x="415.78720703125" y="156.88" style="font-family: Arial; font-size: 8.2px;fill: rgb(12%,13%,14%); stroke:none;" transform="translate(0,313) scale(1,-1)">n = 8,152</text>
			<path d="M 431,128 L 431,101 Z" style="stroke: rgb(39%,41%,45%); stroke-linecap: butt; stroke-width: 1.2;"/>
			<polygon points="431 96, 427.5 103, 434.5 103" style="stroke: rgb(39%,41%,45%); stroke-linecap: butt; stroke-width: 1; fill: rgb(39%,41%,45%); fill-rule: evenodd;"/>
			<text x="438.0" y="110" style="font-family: Arial; font-size: 6.8px;fill: rgb(39%,41%,45%); stroke:none;" transform="translate(0,220) scale(1,-1)">Excluded: 1,245</text>
			<rect x="352" y="20" width="158" height="70" style="stroke: rgb(74%,29%,18%); stroke-linecap: butt; stroke-width: 1.2; fill: rgb(96%,97%,97%); fill-rule: evenodd;"/>
			<rect x="352" y="20" width="4" height="70" style="stroke: rgb(74%,29%,18%); stroke-linecap: butt; stroke-width: 1; fill: rgb(74%,29%,18%); fill-rule: evenodd;"/>
			<text x="391.3033203125" y="62.38" style="font-family: Arial-Bold; font-size: 8.2px;fill: rgb(12%,13%,14%); stroke:none;" transform="translate(0,124) scale(1,-1)">Also wave 8 outcome</text>
			<text x="397.909765625" y="52.13" style="font-family: Arial-Bold; font-size: 8.2px;fill: rgb(12%,13%,14%); stroke:none;" transform="translate(0,104) scale(1,-1)">memory complete</text>
			<text x="415.56298828125" y="41.88" style="font-family: Arial-Bold; font-size: 8.2px;fill: rgb(12%,13%,14%); stroke:none;" transform="translate(0,83) scale(1,-1)">n = 6,907</text>
		</g>
	</g>
</svg>
